<svg width="95" height="95" viewBox="0 0 95 95" fill="none" xmlns="http://www.w3.org/2000/svg">
<path d="M47.5 95C45.5774 95 43.9658 94.3497 42.6652 93.0491C41.3646 91.7485 40.7143 90.1369 40.7143 88.2143V54.2857H6.78571C4.8631 54.2857 3.25149 53.6354 1.95089 52.3348C0.650298 51.0342 0 49.4226 0 47.5C0 45.5774 0.650298 43.9658 1.95089 42.6652C3.25149 41.3646 4.8631 40.7143 6.78571 40.7143H40.7143V6.78571C40.7143 4.8631 41.3646 3.25149 42.6652 1.95089C43.9658 0.650298 45.5774 0 47.5 0C49.4226 0 51.0342 0.650298 52.3348 1.95089C53.6354 3.25149 54.2857 4.8631 54.2857 6.78571V40.7143H88.2143C90.1369 40.7143 91.7485 41.3646 93.0491 42.6652C94.3497 43.9658 95 45.5774 95 47.5C95 49.4226 94.3497 51.0342 93.0491 52.3348C91.7485 53.6354 90.1369 54.2857 88.2143 54.2857H54.2857V88.2143C54.2857 90.1369 53.6354 91.7485 52.3348 93.0491C51.0342 94.3497 49.4226 95 47.5 95Z" fill="#1B1B1B"/>
</svg>
