<svg width="43" height="43" viewBox="0 0 43 43" fill="none" xmlns="http://www.w3.org/2000/svg">
<path d="M38.8466 42.3272L25.1648 28.6259C23.9432 29.6046 22.5384 30.3793 20.9503 30.9502C19.3622 31.5211 17.6723 31.8065 15.8807 31.8065C11.4422 31.8065 7.68584 30.2672 4.61151 27.1885C1.53717 24.1098 0 20.348 0 15.9033C0 11.4585 1.53717 7.69678 4.61151 4.61807C7.68584 1.53936 11.4422 0 15.8807 0C20.3191 0 24.0755 1.53936 27.1499 4.61807C30.2242 7.69678 31.7614 11.4585 31.7614 15.9033C31.7614 17.6975 31.4763 19.3898 30.9063 20.9801C30.3362 22.5704 29.5625 23.9772 28.5852 25.2006L42.3281 38.963C42.776 39.4116 43 39.9621 43 40.6145C43 41.267 42.7557 41.8378 42.267 42.3272C41.8191 42.7757 41.2491 43 40.5568 43C39.8646 43 39.2945 42.7757 38.8466 42.3272ZM15.8807 26.9132C18.9347 26.9132 21.5305 25.8428 23.6683 23.702C25.8061 21.5612 26.875 18.9616 26.875 15.9033C26.875 12.845 25.8061 10.2454 23.6683 8.10455C21.5305 5.96373 18.9347 4.89331 15.8807 4.89331C12.8267 4.89331 10.2308 5.96373 8.09304 8.10455C5.95526 10.2454 4.88636 12.845 4.88636 15.9033C4.88636 18.9616 5.95526 21.5612 8.09304 23.702C10.2308 25.8428 12.8267 26.9132 15.8807 26.9132Z" fill="#1B1B1B"/>
</svg>
