<svg width="44" height="27" viewBox="0 0 44 27" fill="none" xmlns="http://www.w3.org/2000/svg">
<path d="M12.2048 26.3349L0.688478 15.2089C0.438122 14.967 0.260787 14.705 0.156472 14.4228C0.0521574 14.1406 0 13.8383 0 13.5158C0 13.1933 0.0521574 12.8909 0.156472 12.6088C0.260787 12.3266 0.438122 12.0646 0.688478 11.8227L12.2674 0.636222C12.7264 0.192795 13.3001 -0.0188413 13.9886 0.00131451C14.6771 0.0214703 15.2508 0.253262 15.7098 0.696689C16.1688 1.14012 16.3983 1.70448 16.3983 2.38978C16.3983 3.07507 16.1688 3.63944 15.7098 4.08286L8.4495 11.0971H38.9929V3.84099C38.9929 3.1557 39.2328 2.58126 39.7127 2.11767C40.1925 1.65409 40.7871 1.4223 41.4964 1.4223C42.2058 1.4223 42.8004 1.65409 43.2802 2.11767C43.7601 2.58126 44 3.1557 44 3.84099V13.5158C44 14.2011 43.7601 14.7755 43.2802 15.2391C42.8004 15.7027 42.2058 15.9345 41.4964 15.9345H8.4495L15.7724 23.0092C16.2314 23.4526 16.4504 24.0069 16.4296 24.672C16.4087 25.3371 16.1688 25.8914 15.7098 26.3349C15.2508 26.7783 14.6667 27 13.9573 27C13.248 27 12.6638 26.7783 12.2048 26.3349Z" fill="white"/>
</svg>
