<svg width="261" height="66" viewBox="0 0 261 66" fill="none" xmlns="http://www.w3.org/2000/svg">
<path d="M0.043457 16.916C0.043457 11.6572 1.5083 7.56299 4.43799 4.6333C7.36768 1.70361 11.4473 0.23877 16.6768 0.23877C22.0381 0.23877 26.1689 1.68164 29.0693 4.56738C31.9697 7.43848 33.4199 11.4668 33.4199 16.6523C33.4199 20.417 32.7827 23.5078 31.5083 25.9248C30.2485 28.3271 28.4175 30.2021 26.0151 31.5498C23.6274 32.8828 20.6465 33.5493 17.0723 33.5493C13.4395 33.5493 10.4292 32.9707 8.0415 31.8135C5.66846 30.6562 3.74219 28.8252 2.2627 26.3203C0.783203 23.8154 0.043457 20.6807 0.043457 16.916ZM9.99707 16.96C9.99707 20.2119 10.5977 22.5483 11.7988 23.9692C13.0146 25.3901 14.6626 26.1006 16.7427 26.1006C18.8813 26.1006 20.5366 25.4048 21.7085 24.0132C22.8804 22.6216 23.4663 20.124 23.4663 16.5205C23.4663 13.4883 22.8511 11.2764 21.6206 9.88477C20.4048 8.47852 18.7495 7.77539 16.6548 7.77539C14.6479 7.77539 13.0366 8.48584 11.8208 9.90674C10.605 11.3276 9.99707 13.6787 9.99707 16.96Z" fill="#DD5151"/>
<path d="M38.4956 0.788086H47.4604V33H38.4956V0.788086Z" fill="#DD5151"/>
<path d="M61.3252 17.2236L52.7778 16.3228C53.1001 14.8286 53.5615 13.6567 54.1621 12.8071C54.7773 11.9429 55.6562 11.1958 56.7988 10.5659C57.6191 10.1118 58.7471 9.76025 60.1826 9.51123C61.6182 9.26221 63.1709 9.1377 64.8408 9.1377C67.5215 9.1377 69.6748 9.2915 71.3008 9.59912C72.9268 9.89209 74.2817 10.5146 75.3657 11.4668C76.1274 12.126 76.728 13.0635 77.1675 14.2793C77.6069 15.4805 77.8267 16.6304 77.8267 17.729V28.0342C77.8267 29.1328 77.8926 29.9971 78.0244 30.627C78.1709 31.2422 78.4785 32.0332 78.9473 33H70.5537C70.2168 32.3994 69.9971 31.9453 69.8945 31.6377C69.792 31.3154 69.6895 30.8174 69.5869 30.1436C68.415 31.2715 67.2505 32.0771 66.0933 32.5605C64.5112 33.2051 62.6729 33.5273 60.5781 33.5273C57.7949 33.5273 55.6782 32.8828 54.228 31.5938C52.7925 30.3047 52.0747 28.7153 52.0747 26.8257C52.0747 25.0532 52.5947 23.5957 53.6348 22.4531C54.6748 21.3105 56.5938 20.4609 59.3916 19.9043C62.7461 19.2305 64.9214 18.7617 65.9175 18.498C66.9136 18.2197 67.9683 17.8608 69.0815 17.4214C69.0815 16.3228 68.8545 15.5537 68.4004 15.1143C67.9463 14.6748 67.1479 14.4551 66.0054 14.4551C64.5405 14.4551 63.4419 14.6895 62.7095 15.1582C62.1382 15.5244 61.6768 16.2129 61.3252 17.2236ZM69.0815 21.9258C67.8511 22.3652 66.5693 22.7534 65.2363 23.0903C63.4199 23.5737 62.27 24.0498 61.7866 24.5186C61.2886 25.002 61.0396 25.5513 61.0396 26.1665C61.0396 26.8696 61.2812 27.4482 61.7646 27.9023C62.2627 28.3418 62.9878 28.5615 63.9399 28.5615C64.936 28.5615 65.8589 28.3198 66.7085 27.8364C67.5728 27.353 68.1807 26.7671 68.5322 26.0786C68.8984 25.3755 69.0815 24.4673 69.0815 23.354V21.9258Z" fill="#DD5151"/>
<path d="M79.7383 9.66504H89.0547L93.5811 24.4526L98.2612 9.66504H107.292L97.3823 33H89.4502L79.7383 9.66504Z" fill="#DD5151"/>
<path d="M107.622 21.3984C107.622 17.8389 108.823 14.9092 111.225 12.6094C113.627 10.2949 116.872 9.1377 120.959 9.1377C125.632 9.1377 129.162 10.4927 131.55 13.2026C133.469 15.3853 134.428 18.0732 134.428 21.2666C134.428 24.8555 133.234 27.7998 130.847 30.0996C128.474 32.3848 125.185 33.5273 120.981 33.5273C117.231 33.5273 114.199 32.5752 111.884 30.6709C109.042 28.3125 107.622 25.2217 107.622 21.3984ZM116.586 21.3765C116.586 23.4565 117.004 24.9946 117.839 25.9907C118.688 26.9868 119.75 27.4849 121.025 27.4849C122.314 27.4849 123.369 26.9941 124.189 26.0127C125.024 25.0312 125.441 23.4565 125.441 21.2886C125.441 19.2671 125.024 17.7656 124.189 16.7842C123.354 15.7881 122.321 15.29 121.091 15.29C119.787 15.29 118.71 15.7954 117.861 16.8062C117.011 17.8022 116.586 19.3257 116.586 21.3765Z" fill="#DD5151"/>
<path d="M139.318 0.788086H157.951C161.056 0.788086 163.437 1.55713 165.092 3.09521C166.762 4.6333 167.597 6.5376 167.597 8.80811C167.597 10.7124 167.003 12.3457 165.817 13.708C165.026 14.6162 163.869 15.334 162.345 15.8613C164.66 16.418 166.359 17.3774 167.443 18.7397C168.542 20.0874 169.091 21.7866 169.091 23.8374C169.091 25.5073 168.703 27.0088 167.926 28.3418C167.15 29.6748 166.088 30.7295 164.74 31.5059C163.905 31.9893 162.646 32.3408 160.961 32.5605C158.72 32.8535 157.233 33 156.5 33H139.318V0.788086ZM149.359 13.4224H153.688C155.241 13.4224 156.317 13.1587 156.918 12.6313C157.533 12.0894 157.841 11.313 157.841 10.3022C157.841 9.36475 157.533 8.63232 156.918 8.10498C156.317 7.57764 155.263 7.31396 153.754 7.31396H149.359V13.4224ZM149.359 26.0786H154.435C156.149 26.0786 157.357 25.7783 158.061 25.1777C158.764 24.5625 159.115 23.7422 159.115 22.7168C159.115 21.7646 158.764 21.0029 158.061 20.4316C157.372 19.8457 156.156 19.5527 154.413 19.5527H149.359V26.0786Z" fill="#1B1B1B"/>
<path d="M174.057 0.788086H183V6.87451H174.057V0.788086ZM174.057 9.66504H183V33H174.057V9.66504Z" fill="#1B1B1B"/>
<path d="M189.02 0.788086H197.985V33H189.02V0.788086Z" fill="#1B1B1B"/>
<path d="M211.85 17.2236L203.302 16.3228C203.625 14.8286 204.086 13.6567 204.687 12.8071C205.302 11.9429 206.181 11.1958 207.323 10.5659C208.144 10.1118 209.271 9.76025 210.707 9.51123C212.143 9.26221 213.695 9.1377 215.365 9.1377C218.046 9.1377 220.199 9.2915 221.825 9.59912C223.451 9.89209 224.806 10.5146 225.89 11.4668C226.652 12.126 227.252 13.0635 227.692 14.2793C228.131 15.4805 228.351 16.6304 228.351 17.729V28.0342C228.351 29.1328 228.417 29.9971 228.549 30.627C228.695 31.2422 229.003 32.0332 229.472 33H221.078C220.741 32.3994 220.521 31.9453 220.419 31.6377C220.316 31.3154 220.214 30.8174 220.111 30.1436C218.939 31.2715 217.775 32.0771 216.618 32.5605C215.036 33.2051 213.197 33.5273 211.103 33.5273C208.319 33.5273 206.203 32.8828 204.752 31.5938C203.317 30.3047 202.599 28.7153 202.599 26.8257C202.599 25.0532 203.119 23.5957 204.159 22.4531C205.199 21.3105 207.118 20.4609 209.916 19.9043C213.271 19.2305 215.446 18.7617 216.442 18.498C217.438 18.2197 218.493 17.8608 219.606 17.4214C219.606 16.3228 219.379 15.5537 218.925 15.1143C218.471 14.6748 217.672 14.4551 216.53 14.4551C215.065 14.4551 213.966 14.6895 213.234 15.1582C212.663 15.5244 212.201 16.2129 211.85 17.2236ZM219.606 21.9258C218.375 22.3652 217.094 22.7534 215.761 23.0903C213.944 23.5737 212.794 24.0498 212.311 24.5186C211.813 25.002 211.564 25.5513 211.564 26.1665C211.564 26.8696 211.806 27.4482 212.289 27.9023C212.787 28.3418 213.512 28.5615 214.464 28.5615C215.46 28.5615 216.383 28.3198 217.233 27.8364C218.097 27.353 218.705 26.7671 219.057 26.0786C219.423 25.3755 219.606 24.4673 219.606 23.354V21.9258Z" fill="#1B1B1B"/>
<path d="M251.115 23.8813L259.618 24.8481C259.149 26.6206 258.38 28.1587 257.311 29.4624C256.242 30.7515 254.872 31.7549 253.202 32.4727C251.547 33.1904 249.438 33.5493 246.874 33.5493C244.398 33.5493 242.333 33.3223 240.678 32.8682C239.037 32.3994 237.624 31.6523 236.437 30.627C235.25 29.5869 234.32 28.3711 233.646 26.9795C232.973 25.5879 232.636 23.7422 232.636 21.4424C232.636 19.04 233.046 17.0405 233.866 15.4438C234.467 14.272 235.287 13.2246 236.327 12.3018C237.367 11.3643 238.437 10.6685 239.535 10.2144C241.278 9.49658 243.512 9.1377 246.237 9.1377C250.045 9.1377 252.946 9.81885 254.938 11.1812C256.945 12.5435 258.351 14.5356 259.157 17.1577L250.741 18.2783C250.478 17.2822 249.994 16.5352 249.291 16.0371C248.603 15.5244 247.672 15.2681 246.5 15.2681C245.021 15.2681 243.82 15.8027 242.897 16.8721C241.989 17.9268 241.535 19.5308 241.535 21.6841C241.535 23.603 241.989 25.0605 242.897 26.0566C243.805 27.0527 244.962 27.5508 246.369 27.5508C247.541 27.5508 248.522 27.2505 249.313 26.6499C250.119 26.0493 250.719 25.1265 251.115 23.8813Z" fill="#1B1B1B"/>
<path d="M158.313 65L163.56 39.9463H181.641L181.043 42.8003H166.312L164.671 50.5933H179.026L178.428 53.4473H164.073L162.261 62.1631H178.035L177.437 65H158.313Z" fill="#DD5151"/>
<path d="M181.539 58.7964L184.632 58.6084C184.632 59.4971 184.769 60.2547 185.042 60.8813C185.315 61.508 185.817 62.0207 186.546 62.4194C187.286 62.8182 188.147 63.0176 189.126 63.0176C190.494 63.0176 191.519 62.7441 192.203 62.1973C192.886 61.6504 193.228 61.0067 193.228 60.2661C193.228 59.7306 193.023 59.2236 192.613 58.7451C192.191 58.2666 191.16 57.6799 189.52 56.9849C187.89 56.2785 186.848 55.7829 186.392 55.498C185.629 55.0309 185.053 54.484 184.666 53.8574C184.279 53.2194 184.085 52.4902 184.085 51.6699C184.085 50.2344 184.655 49.0039 185.794 47.9785C186.933 46.9531 188.528 46.4404 190.579 46.4404C192.858 46.4404 194.59 46.9702 195.774 48.0298C196.971 49.078 197.592 50.4622 197.637 52.1826L194.612 52.3877C194.567 51.2939 194.179 50.4281 193.45 49.79C192.721 49.152 191.69 48.833 190.357 48.833C189.286 48.833 188.454 49.078 187.862 49.5679C187.269 50.0578 186.973 50.5876 186.973 51.1572C186.973 51.7269 187.229 52.2282 187.742 52.6611C188.084 52.9574 188.967 53.4131 190.391 54.0283C192.761 55.0537 194.253 55.8626 194.869 56.4551C195.848 57.4007 196.338 58.5514 196.338 59.9072C196.338 60.8073 196.059 61.6903 195.501 62.5562C194.954 63.422 194.111 64.117 192.972 64.6411C191.844 65.1538 190.511 65.4102 188.973 65.4102C186.876 65.4102 185.093 64.8918 183.624 63.855C182.154 62.8182 181.459 61.132 181.539 58.7964Z" fill="#DD5151"/>
<path d="M211.275 58.3862L214.368 58.7109C213.593 60.9782 212.488 62.6644 211.053 63.7695C209.629 64.8633 208.005 65.4102 206.182 65.4102C204.211 65.4102 202.61 64.7721 201.38 63.4961C200.161 62.2201 199.551 60.437 199.551 58.147C199.551 56.1646 199.944 54.2163 200.73 52.3022C201.517 50.3882 202.639 48.9355 204.097 47.9443C205.567 46.9417 207.242 46.4404 209.122 46.4404C211.07 46.4404 212.614 46.993 213.753 48.0981C214.892 49.1919 215.462 50.6445 215.462 52.4561L212.42 52.6611C212.409 51.5104 212.072 50.6104 211.412 49.9609C210.762 49.3115 209.902 48.9868 208.831 48.9868C207.589 48.9868 206.513 49.3799 205.601 50.166C204.69 50.9521 203.972 52.1484 203.448 53.7549C202.935 55.3499 202.679 56.888 202.679 58.3691C202.679 59.9186 203.021 61.0807 203.704 61.8555C204.388 62.6302 205.231 63.0176 206.233 63.0176C207.236 63.0176 208.193 62.6359 209.104 61.8726C210.027 61.1092 210.751 59.9471 211.275 58.3862Z" fill="#DD5151"/>
<path d="M216.795 58.1128C216.795 54.5695 217.837 51.6357 219.922 49.3115C221.643 47.3975 223.899 46.4404 226.69 46.4404C228.877 46.4404 230.638 47.124 231.971 48.4912C233.315 49.8584 233.987 51.7041 233.987 54.0283C233.987 56.1133 233.566 58.0558 232.723 59.856C231.88 61.6447 230.678 63.0176 229.117 63.9746C227.567 64.9316 225.932 65.4102 224.212 65.4102C222.799 65.4102 221.512 65.1082 220.35 64.5044C219.199 63.9006 218.316 63.0461 217.701 61.9409C217.097 60.8358 216.795 59.5597 216.795 58.1128ZM219.888 57.8052C219.888 59.5142 220.298 60.813 221.119 61.7017C221.939 62.5789 222.981 63.0176 224.246 63.0176C224.907 63.0176 225.562 62.8866 226.211 62.6245C226.861 62.3511 227.465 61.9409 228.023 61.394C228.581 60.8472 229.054 60.2262 229.441 59.5312C229.84 58.8249 230.159 58.0672 230.398 57.2583C230.752 56.1304 230.928 55.048 230.928 54.0112C230.928 52.3706 230.512 51.1003 229.681 50.2002C228.86 49.2887 227.824 48.833 226.57 48.833C225.602 48.833 224.719 49.0666 223.921 49.5337C223.124 49.9894 222.4 50.6616 221.751 51.5503C221.113 52.439 220.64 53.4757 220.333 54.6606C220.036 55.8341 219.888 56.8823 219.888 57.8052Z" fill="#DD5151"/>
<path d="M235.491 65L240.721 39.9463H243.814L238.584 65H235.491Z" fill="#DD5151"/>
<path d="M255.76 62.7441C254.689 63.667 253.658 64.3449 252.667 64.7778C251.675 65.1994 250.616 65.4102 249.488 65.4102C247.813 65.4102 246.463 64.9202 245.438 63.9404C244.412 62.9492 243.899 61.6846 243.899 60.1465C243.899 59.1325 244.127 58.2381 244.583 57.4634C245.05 56.6772 245.665 56.0506 246.429 55.5835C247.192 55.105 248.126 54.7632 249.231 54.5581C249.926 54.4214 251.242 54.3132 253.179 54.2334C255.127 54.1536 256.523 53.9486 257.366 53.6182C257.605 52.7751 257.725 52.0744 257.725 51.5161C257.725 50.7983 257.463 50.2344 256.939 49.8242C256.221 49.2546 255.173 48.9697 253.794 48.9697C252.496 48.9697 251.43 49.2603 250.599 49.8413C249.778 50.411 249.18 51.2256 248.804 52.2852L245.677 52.0117C246.315 50.2116 247.323 48.833 248.702 47.876C250.092 46.9189 251.84 46.4404 253.948 46.4404C256.193 46.4404 257.97 46.9759 259.28 48.0469C260.283 48.8444 260.784 49.8812 260.784 51.1572C260.784 52.1257 260.642 53.2479 260.357 54.5239L259.349 59.0356C259.03 60.4712 258.87 61.639 258.87 62.5391C258.87 63.1087 258.995 63.929 259.246 65H256.119C255.948 64.4076 255.828 63.6556 255.76 62.7441ZM256.905 55.8057C256.472 55.9766 256.005 56.1076 255.503 56.1987C255.014 56.2899 254.188 56.3867 253.025 56.4893C251.225 56.6488 249.955 56.8538 249.214 57.1045C248.474 57.3438 247.916 57.7311 247.54 58.2666C247.164 58.8021 246.976 59.3945 246.976 60.0439C246.976 60.9098 247.272 61.6219 247.864 62.1802C248.468 62.7384 249.323 63.0176 250.428 63.0176C251.453 63.0176 252.439 62.7498 253.384 62.2144C254.33 61.6675 255.076 60.9098 255.623 59.9414C256.17 58.973 256.597 57.5944 256.905 55.8057Z" fill="#DD5151"/>
<path d="M74.2993 65L88.501 39.9463H92.4487L96.5845 65H93.3374L92.124 57.7881H81.9897L77.9736 65H74.2993ZM83.4253 55.2075H91.7139L90.7397 48.9185C90.3638 46.4233 90.1302 44.3441 90.0391 42.6807C89.4694 44.1162 88.6377 45.8195 87.5439 47.7905L83.4253 55.2075Z" fill="#1B1B1B"/>
<path d="M111.897 61.7188C109.721 64.1797 107.493 65.4102 105.215 65.4102C103.813 65.4102 102.68 65.0114 101.814 64.2139C100.959 63.4049 100.532 62.4194 100.532 61.2573C100.532 60.494 100.726 59.1838 101.113 57.3267L103.301 46.8506H106.394L103.967 58.4546C103.762 59.423 103.66 60.175 103.66 60.7104C103.66 61.394 103.865 61.9295 104.275 62.3169C104.696 62.6929 105.312 62.8809 106.121 62.8809C106.986 62.8809 107.83 62.6701 108.65 62.2485C109.482 61.827 110.194 61.2573 110.786 60.5396C111.39 59.8218 111.88 58.973 112.256 57.9932C112.507 57.3665 112.797 56.2671 113.127 54.6948L114.768 46.8506H117.861L114.067 65H111.213L111.897 61.7188Z" fill="#1B1B1B"/>
<path d="M126.218 62.4878L125.706 65.0171C124.965 65.2108 124.247 65.3076 123.552 65.3076C122.322 65.3076 121.342 65.0057 120.613 64.4019C120.066 63.9461 119.792 63.3252 119.792 62.5391C119.792 62.1403 119.941 61.2231 120.237 59.7876L122.441 49.2432H119.998L120.493 46.8506H122.937L123.877 42.3901L127.415 40.2539L126.03 46.8506H129.072L128.56 49.2432H125.535L123.433 59.2749C123.171 60.5509 123.04 61.3143 123.04 61.5649C123.04 61.9295 123.142 62.2087 123.347 62.4023C123.564 62.596 123.911 62.6929 124.39 62.6929C125.073 62.6929 125.683 62.6245 126.218 62.4878Z" fill="#1B1B1B"/>
<path d="M129.277 58.1128C129.277 54.5695 130.32 51.6357 132.405 49.3115C134.125 47.3975 136.381 46.4404 139.172 46.4404C141.36 46.4404 143.12 47.124 144.453 48.4912C145.798 49.8584 146.47 51.7041 146.47 54.0283C146.47 56.1133 146.048 58.0558 145.205 59.856C144.362 61.6447 143.16 63.0176 141.599 63.9746C140.05 64.9316 138.415 65.4102 136.694 65.4102C135.282 65.4102 133.994 65.1082 132.832 64.5044C131.681 63.9006 130.798 63.0461 130.183 61.9409C129.579 60.8358 129.277 59.5597 129.277 58.1128ZM132.371 57.8052C132.371 59.5142 132.781 60.813 133.601 61.7017C134.421 62.5789 135.464 63.0176 136.729 63.0176C137.389 63.0176 138.044 62.8866 138.694 62.6245C139.343 62.3511 139.947 61.9409 140.505 61.394C141.064 60.8472 141.536 60.2262 141.924 59.5312C142.323 58.8249 142.642 58.0672 142.881 57.2583C143.234 56.1304 143.411 55.048 143.411 54.0112C143.411 52.3706 142.995 51.1003 142.163 50.2002C141.343 49.2887 140.306 48.833 139.053 48.833C138.084 48.833 137.201 49.0666 136.404 49.5337C135.606 49.9894 134.883 50.6616 134.233 51.5503C133.595 52.439 133.123 53.4757 132.815 54.6606C132.519 55.8341 132.371 56.8823 132.371 57.8052Z" fill="#1B1B1B"/>
</svg>
