<svg width="444" height="359" viewBox="0 0 444 359" fill="none" xmlns="http://www.w3.org/2000/svg">
<path d="M153.077 5.92018H291.905C319.386 5.92018 339.839 7.10422 353.264 9.4723C366.847 11.6825 378.929 16.4186 389.511 23.6807C400.251 30.9428 409.174 40.6519 416.282 52.808C423.389 64.8063 426.943 78.3043 426.943 93.3021C426.943 109.563 422.52 124.482 413.676 138.059C404.989 151.636 393.144 161.818 378.139 168.607C399.303 174.764 415.571 185.262 426.943 200.102C438.314 214.942 444 232.387 444 252.437C444 268.224 440.288 283.616 432.865 298.614C425.6 313.454 415.571 325.373 402.778 334.372C390.143 343.213 374.507 348.659 355.87 350.712C344.183 351.975 315.991 352.764 271.294 353.08H153.077V5.92018ZM223.201 63.7012V143.979H269.162C296.485 143.979 313.464 143.584 320.097 142.795C332.1 141.374 341.498 137.269 348.289 130.481C355.238 123.535 358.713 114.457 358.713 103.248C358.713 92.5128 355.712 83.8298 349.711 77.1992C343.867 70.4107 335.101 66.3061 323.414 64.8852C316.464 64.0959 296.485 63.7012 263.476 63.7012H223.201ZM223.201 201.76V294.588H288.114C313.385 294.588 329.415 293.878 336.207 292.457C346.631 290.563 355.08 285.984 361.556 278.722C368.189 271.302 371.506 261.435 371.506 249.121C371.506 238.702 368.979 229.861 363.925 222.599C358.871 215.337 351.527 210.048 341.893 206.733C332.416 203.418 311.726 201.76 279.823 201.76H223.201Z" fill="#1B1B1B"/>
<path d="M0 181.631C0 146.268 5.29095 116.588 15.8729 92.5917C23.7698 74.9101 34.5096 59.044 48.0924 44.9934C61.8331 30.9428 76.8373 20.5233 93.105 13.7348C114.743 4.57828 139.697 0 167.968 0C219.14 0 260.046 15.8661 290.686 47.5983C321.485 79.3305 336.884 123.456 336.884 179.974C336.884 236.018 321.643 279.906 291.16 311.639C260.678 343.213 219.93 359 168.916 359C117.27 359 76.2055 343.292 45.7233 311.875C15.2411 280.301 0 236.886 0 181.631ZM72.257 179.263C72.257 218.573 81.3385 248.411 99.5015 268.776C117.664 288.984 140.724 299.088 168.679 299.088C196.634 299.088 219.535 289.063 237.382 269.013C255.387 248.806 264.39 218.573 264.39 178.316C264.39 138.532 255.624 108.852 238.093 89.2764C220.72 69.7003 197.582 59.9123 168.679 59.9123C139.776 59.9123 116.48 69.8582 98.7908 89.75C81.1016 109.484 72.257 139.322 72.257 179.263Z" fill="#DD5151"/>
</svg>
